<?xml version="1.0" encoding="utf-8"?>
<!-- Generator: Adobe Illustrator 25.4.1, SVG Export Plug-In . SVG Version: 6.00 Build 0)  -->
<svg version="1.1" id="Layer_1" xmlns="http://www.w3.org/2000/svg" xmlns:xlink="http://www.w3.org/1999/xlink" x="0px" y="0px"
	 viewBox="0 200 1000 1200" xml:space="preserve">
<style type="text/css">
	.st0{fill:#FFFFFF;}
</style>
<path class="st0" d="M142,257.2v717h717v-717H142z M504.5,760.2c-0.8,39.2-5.4,71.7-5.4,71.7s-26.2-25.7-50.4-38.2
	c-24.2-12.5-46.3-20.5-46.3-20.5s-0.3-5.9-1.1-16c1.4,1.4,2.8,2.7,4.2,4.1c15.2,14.1,34.2,27,55.1,27c4.2,0,9.2-1.5,13.1-3
	c4-1.5,8.4-4.7,11.5-7.7c13.4-12.9,11.3-34.8-1.5-46.8c-3.9-3.7-12.7-6.4-20.3-3.9c-9.3,3-15.1,10.9-13,17.6
	c2.1,6.7,11.3,9.8,20.6,6.8c1.6-0.5,3.1-1.2,4.5-2l0,0.1c-6.5,6.4-18.6,10.9-27.7,10.4c-15.2-0.9-29.5-9.4-39.5-21.4
	c-4.6-5.6-8-11.3-9.7-18.4c-1.2-5.5-2.3-11-3.4-16.5c-0.2-1.1-0.3-2.2-0.5-3.4c15.2,13.9,34.3,26.7,55.3,26.7c4.3,0,9.3-1.5,13.3-3
	c4.1-1.5,8.5-4.7,11.6-7.7c13.5-12.9,11.5-34.9-1.4-46.9c-3.9-3.7-12.8-6.3-20.5-3.9c-9.4,3-15.2,10.9-13.1,17.6
	c2.1,6.7,11.4,9.8,20.8,6.8c1.6-0.5,3.2-1.2,4.6-2l0,0.1c-6.6,6.4-18.8,10.9-28,10.4c-15.3-0.9-29.8-9.4-39.8-21.3
	c-4.1-4.9-7.3-10-9.1-16.1c-0.9-4.9-1.9-10-2.9-15c1,0.7,2,1.5,3,2.2c15.1,10.7,33.6,20,52.7,17.7c3.9-0.5,8.2-2.3,11.7-4.1
	c3.5-1.8,7.2-5,9.8-8c11-12.8,7.1-31.9-5.6-41c-3.8-2.9-12.2-4.2-18.8-1.2c-8.2,3.6-12.7,11.2-10.2,16.9c2.5,5.7,11.2,7.4,19.4,3.7
	c1.4-0.6,2.7-1.4,3.9-2.2l0,0.1c-5.3,6.3-16,11.6-24.3,12.1c-13.9,0.9-27.8-5.1-37.9-14.5c-4.7-4.4-8.4-9-10.5-15.1
	c-1.4-4-2.6-8-3.9-12c0,0,0.1,0.1,0.1,0.1c1.7,0.9,3.5,1.8,5.3,2.6c14.6,6.8,32.1,11.9,49.3,7.3c3.5-0.9,7.3-3.1,10.3-5.1
	c3.1-2,6.2-5.3,8.3-8.1c9-12.3,4-27.8-8.4-33.6c-3.7-1.9-11.4-1.8-17.2,1.7c-7.2,4.2-10.7,11.2-8,15.6c2.8,4.4,10.8,4.6,17.9,0.3
	c1.3-0.7,2.4-1.6,3.4-2.4l0,0.1c-4.3,6-13.6,12-21.2,13.7c-12.6,2.7-25.7-0.3-35.6-6.7c-4.6-3-8.3-6.4-10.7-11.2
	c-1.9-3.8-3.6-7.6-5.4-11.4c0-0.1-0.1-0.2-0.2-0.3c-0.4-1-0.7-2.1-1.1-3.1c1.4,0.7,2.7,1.3,4.1,2c13.3,6.1,29.3,10.6,44.7,6.2
	c3.1-0.9,6.5-2.9,9.2-4.7c2.7-1.8,5.4-4.9,7.2-7.5c7.8-11.3,2.9-25.4-8.4-30.7c-3.4-1.7-10.3-1.5-15.5,1.7
	c-6.3,3.9-9.4,10.4-6.8,14.4c2.6,4,9.8,4.1,16.2,0.1c1.1-0.7,2.1-1.5,3-2.3l0,0c-3.8,5.6-12,11.1-18.7,12.7
	c-11.3,2.6-23.1,0-32.3-5.8c-4.3-2.7-7.7-5.7-10-10.1c-1.8-3.4-3.4-6.9-5.1-10.4c-0.1-0.2-0.3-0.6-0.5-0.9c0.4,0.2,0.7,0.4,1.1,0.5
	c12,5.4,26.4,9.3,40.4,5.3c2.8-0.8,5.9-2.7,8.3-4.3c2.5-1.7,4.9-4.4,6.6-6.8c7.1-10.2,2.7-22.8-7.4-27.4c-3.1-1.5-9.3-1.3-14,1.6
	c-5.8,3.6-8.5,9.3-6.2,12.9c2.3,3.6,8.9,3.6,14.6,0c1-0.6,1.9-1.3,2.7-2l0,0c-3.4,5-10.9,10-17,11.5c-10.2,2.4-20.9,0.1-29.2-5
	c-3.8-2.4-6.9-5.1-9-9c-1.5-2.9-2.9-5.9-4.4-8.8c10,4.8,21.7,8.2,33.3,5.4c2.5-0.6,5.3-2.2,7.5-3.5c2.2-1.4,4.5-3.7,6-5.8
	c6.5-8.9,2.9-20.5-5.9-25.1c-2.7-1.5-8.2-1.6-12.4,0.8c-5.2,3-7.8,8.1-5.8,11.4c2,3.3,7.8,3.6,12.9,0.7c0.9-0.5,1.7-1.1,2.5-1.7l0,0
	c-3.2,4.4-9.9,8.6-15.3,9.6c-9.1,1.7-18.5-0.8-25.7-5.8c-2.8-2-5.1-4.1-6.8-6.9c-0.8-1.7-1.6-3.3-2.4-4.8c-0.4-0.9-0.8-1.8-1.2-2.7
	c0.2,0.1,0.4,0.2,0.7,0.3c9.4,4.3,20.5,7.4,30.7,4.2c2.1-0.7,4.3-2.1,6-3.5c1.7-1.3,3.4-3.5,4.5-5.4c4.7-8.2,0.5-18.2-7.4-21.9
	c-2.4-1.2-7.1-1-10.4,1.3c-4.1,2.8-5.8,7.5-3.8,10.3c2,2.9,6.9,2.9,11,0c0.7-0.5,1.4-1.1,1.9-1.6v0c-2.3,4-7.5,8-12,9.2
	c-7.5,1.9-15.7,0.1-22.3-4c-3.1-1.9-5.5-4.1-7.3-7.2c-1.4-2.4-2.7-4.9-4-7.3c0-0.1-0.1-0.2-0.1-0.3c0.3,0.1,0.6,0.3,0.8,0.4
	c8,3.9,17.4,6.8,25.9,4.2c1.7-0.5,3.5-1.8,5-2.9c1.4-1.1,2.8-3,3.7-4.6c3.8-7,0.1-15.8-6.7-19.1c-2.1-1.1-6-1-8.8,0.9
	c-3.4,2.4-4.7,6.4-3,8.9c1.7,2.5,5.9,2.6,9.3,0.2c0.6-0.4,1.1-0.9,1.6-1.4v0c-1.8,3.4-6.2,6.8-9.9,7.7c-6.3,1.5-13.2-0.2-18.8-3.8
	c-2.6-1.7-4.7-3.6-6.3-6.4c-1.2-2.1-2.4-4.3-3.6-6.5c0,0,0-0.1-0.1-0.1c-0.1-0.2-0.2-0.4-0.3-0.7c0.7,0.4,1.3,0.7,2,1.1
	c6.2,3.3,13.7,5.9,20.6,4c1.4-0.4,2.9-1.3,4.1-2.2c1.2-0.9,2.3-2.3,3.1-3.6c3.2-5.4,0.6-12.5-4.7-15.3c-1.6-0.9-4.8-1-7,0.5
	c-2.8,1.8-4,4.9-2.7,7c1.3,2,4.6,2.2,7.4,0.4c0.5-0.3,0.9-0.7,1.3-1.1v0c-1.6,2.7-5.2,5.3-8.2,5.9c-5.1,1-10.6-0.5-14.9-3.5
	c-2-1.4-3.7-3-4.8-5.2c-0.9-1.7-1.8-3.5-2.6-5.2c-0.1-0.1-0.2-0.3-0.3-0.5c0-0.1-0.1-0.2-0.1-0.3c3.3,3,7,4.9,11.6,5.7
	c1.3,0.2,2.9,0,4.2-0.4c1.3-0.3,2.8-1.2,3.9-2.1c4.7-3.8,4.9-11.7,1.5-16.6c-1-1.5-3.7-2.9-6.1-2.5c-3,0.6-5.1,3-4.7,5.5
	c0.4,2.5,3.1,4,6.1,3.5c0.5-0.1,1-0.3,1.5-0.5l0,0c-2.3,1.9-6.2,2.9-9,2.2c-4.7-1.1-8.7-4.9-11.3-9.6c-1.1-2.1-1.9-4.2-2.2-6.6
	c0-0.5-0.1-1.1-0.1-1.6c0-0.4-0.1-0.8-0.1-1.1c-1.2-22.2,7-43.5,7.1-43.9c2.8,12.8,10.7,32.7,32.5,57.3
	c36.9,41.8,66.1,74.8,77.7,91.8c1.7,2.5,3.6,5.2,5.5,8C427,513,453.8,551.7,471,605.6c9.8,30.6,21.8,74.6,21.8,74.6
	S505.3,721,504.5,760.2z M644,861.9l-47.2,28c-8.3-14.5-41.7-72.8-47.3-84.5l-0.2-0.3c-6.4-13.4-17-35.9-24.2-56.4
	c-7.2-20.5-21.1-71.2-21.2-71.8c-0.1-0.4-12.8-44.3-22.5-74.7c-17.7-55.5-45-95-63.1-121.1c-1.9-2.8-3.8-5.5-5.5-8
	c-12-17.6-41.3-50.7-78.6-92.9c-9.1-10.2-16.2-20.3-21.4-30.1L697,650.9l-173.4,14.2L644,861.9z"/>
<g>
	<path class="st0" d="M239.7,1054h28.7v34.4l28.6-34.4H332l-31.6,34.5l33.8,56.3h-32.3l-20.1-36.3l-13.4,14.8v21.5h-28.8V1054z"/>
	<path class="st0" d="M477.9,1098.5c0,23-13.5,49.3-49.1,49.3c-37.2,0-48.4-27.5-48.4-48.2c0-26,16.1-48.9,48.9-48.9
		C465.2,1050.7,477.9,1076.9,477.9,1098.5z M409.2,1099.4c0,15.8,6.4,25.3,20.1,25.3c11.6,0,19.7-9.1,19.7-26.2
		c0-4.4-0.4-8.4-1.7-12c-4.4-12.6-15.4-13-18-13C419,1073.6,409.2,1080.7,409.2,1099.4z"/>
	<path class="st0" d="M536.1,1053.9h45.3c8.6,0,16.9,0.5,22.4,2.8c12.1,5.1,15.7,17.5,15.7,26.2c0,3.5-0.4,11.6-6.9,18.3
		c-3.6,3.9-7.5,5.3-11.7,6.9l22.1,36.7h-31.9l-17.6-32H565v32h-28.8V1053.9z M565,1072.9v21.2h12c4.8,0,13.9-0.3,13.9-10.5
		c0-10.4-9-10.7-14-10.7H565z"/>
	<path class="st0" d="M680.1,1054h28.8v56.7c0,3.9,0.1,7.8,3.3,10.9c2.3,2.4,5.8,3.3,9.1,3.3c4.5,0,7.5-1.7,9.1-3.2
		c3.3-3.2,3.5-7.2,3.5-11.1V1054h28.9v48.4c0,10.4,0,23.9-10.7,34.1c-6.6,6.2-17.1,10.8-31.1,10.8c-13.4,0-25-4.4-31.6-10.8
		c-9-8.7-9.1-18.9-9.4-28.4V1054z"/>
</g>
<g>
	<path class="st0" d="M238.9,1241.4v-58.6h15.6c6.2,0.1,11.6,0.1,15.9,1.7c8.4,3.3,14.7,13.7,14.7,27.4c0,11-4,20.2-10.5,25.2
		c-5.3,4.2-10.6,4.2-20.5,4.2H238.9z M244.5,1236.4h8.8c4.8,0,11.5,0.1,15.4-1.7c5.6-2.6,10.7-10.8,10.7-22.5c0-10-4-19.7-11.1-22.8
		c-3.2-1.4-6.4-1.4-13.6-1.4h-10.2V1236.4z"/>
	<path class="st0" d="M343.1,1241.4h-5.6v-58.6h5.6V1241.4z"/>
	<path class="st0" d="M441.4,1241.4h-4.8v-9.8c-0.7,1.7-2.5,6.3-8,9.1c-2.7,1.4-6.1,2.2-9.8,2.2c-16.2,0-24.9-13.3-24.9-30.3
		c0-18.1,9.3-31.3,26.2-31.3c15,0,19.7,10,21.7,14.9l-5.2,2.8c-0.6-2.5-3.5-12.9-16-12.9c-12,0-20.7,9.7-20.7,26.2
		c0,14.9,6.6,25.7,19.3,25.7c14,0,17.7-12.9,17.4-22.2H415v-5.1h26.4V1241.4z"/>
	<path class="st0" d="M502.4,1241.4h-5.6v-58.6h5.6V1241.4z"/>
	<path class="st0" d="M574.2,1241.4h-5.6v-53.7h-18.4v-4.9h42.5v4.9h-18.5V1241.4z"/>
	<path class="st0" d="M677.9,1241.4h-6.1l-6.7-17.7h-26.2l-6.6,17.7h-6.2l23.9-58.6h4.6L677.9,1241.4z M663.5,1219.2l-11.3-29.9
		l-11.5,29.9H663.5z"/>
	<path class="st0" d="M763.4,1241.4h-38v-58.7h5.6v53.5h32.4V1241.4z"/>
</g>
</svg>
